<svg width="109" height="26" viewBox="0 0 109 26" fill="none" xmlns="http://www.w3.org/2000/svg">
<path d="M7.81977 4.99977H0V0.406738H21.2791V4.99977H7.81977Z" fill="#FEFEFF"/>
<path d="M18.6918 25.2616C15.2325 25.2616 12.529 24.3023 10.5523 22.3547C8.60458 20.4361 7.61621 17.6744 7.61621 14.0988V0.436035H13.2557V13.8953C13.2557 16.2209 13.7209 17.907 14.6802 18.9244C15.6395 19.9419 16.9767 20.4651 18.6918 20.4651C20.4069 20.4651 21.7441 19.9419 22.7034 18.9244C23.6627 17.907 24.1278 16.2209 24.1278 13.8953V0.436035H29.7092V14.0988C29.7092 17.6744 28.7209 20.4361 26.7732 22.3547C24.8255 24.2733 22.122 25.2616 18.6337 25.2616H18.6918Z" fill="#FEFEFF"/>
<path d="M40.9594 24.7966V4.97096H33.1396V0.37793H54.4187V4.97096H46.599V24.7966H40.9594Z" fill="#FEFEFF"/>
<path d="M68.9824 25.2326C67.0638 25.2326 65.2615 24.9128 63.6336 24.3023C62.0057 23.6628 60.5813 22.7907 59.3894 21.657C58.1976 20.5233 57.2673 19.1861 56.5987 17.6454C55.9301 16.1047 55.6104 14.4477 55.6104 12.6163C55.6104 10.7849 55.9301 9.12791 56.5987 7.58721C57.2673 6.04651 58.1976 4.7093 59.4185 3.57558C60.6394 2.44186 62.0348 1.5407 63.6627 0.930232C65.2906 0.290697 67.0638 0 68.9534 0C70.8429 0 72.6452 0.319767 74.2731 0.930232C75.901 1.56977 77.2964 2.44186 78.4883 3.57558C79.6801 4.7093 80.6104 6.04651 81.308 7.55814C82.0057 9.06977 82.3255 10.7558 82.3255 12.5872C82.3255 14.4186 81.9766 16.0756 81.308 17.6163C80.6394 19.157 79.7092 20.4942 78.4883 21.6279C77.2964 22.7616 75.872 23.6337 74.2731 24.2733C72.6452 24.9128 70.9011 25.2035 68.9824 25.2035V25.2326ZM68.9534 20.407C70.058 20.407 71.0464 20.2326 71.9766 19.8547C72.9069 19.4768 73.6917 18.9535 74.3894 18.2558C75.0871 17.5582 75.6394 16.7442 76.0173 15.7849C76.3952 14.8256 76.5987 13.7791 76.5987 12.6163C76.5987 11.4535 76.3952 10.407 76.0173 9.44768C75.6394 8.48838 75.0871 7.67442 74.4185 6.97675C73.7208 6.27907 72.9359 5.75582 72.0057 5.37791C71.0755 5 70.058 4.82558 68.9824 4.82558C67.9069 4.82558 66.8894 5 65.9592 5.37791C65.029 5.75582 64.2441 6.27907 63.5464 6.97675C62.8487 7.67442 62.2964 8.48838 61.9185 9.44768C61.5406 10.407 61.3371 11.4535 61.3371 12.6163C61.3371 13.7791 61.5406 14.7965 61.9185 15.7849C62.2964 16.7442 62.8487 17.5872 63.5173 18.2849C64.215 18.9826 64.9999 19.5058 65.9301 19.8837C66.8604 20.2616 67.8778 20.4361 68.9534 20.4361V20.407Z" fill="#FEFEFF"/>
<path d="M86.5693 24.7966V0.37793H97.1507C99.331 0.37793 101.22 0.726767 102.79 1.45351C104.36 2.15119 105.581 3.16863 106.453 4.50584C107.325 5.84305 107.732 7.41282 107.732 9.24422C107.732 11.0756 107.296 12.6163 106.453 13.9245C105.581 15.2326 104.36 16.25 102.79 16.9477C101.22 17.6454 99.331 17.9942 97.1507 17.9942H89.7089L92.2089 15.5233V24.7966H86.5693ZM92.2089 16.1338L89.7089 13.4884H96.831C98.5752 13.4884 99.8833 13.1105 100.726 12.3547C101.598 11.5989 102.005 10.5524 102.005 9.24422C102.005 7.93608 101.569 6.86049 100.726 6.10468C99.8542 5.34886 98.5752 5.00003 96.831 5.00003H89.7089L92.2089 2.32561V16.1628V16.1338ZM102.093 24.7966L95.9879 15.9303H102.034L108.197 24.7966H102.093Z" fill="#FEFEFF"/>
</svg>
